<?xml version="1.0" encoding="UTF-8"?>
<svg xmlns="http://www.w3.org/2000/svg" xmlns:xlink="http://www.w3.org/1999/xlink" width="21px" height="32px" viewBox="0 0 21 32" version="1.1">
<g id="surface1">
<path style=" stroke:none;fill-rule:nonzero;fill:rgb(100%,100%,100%);fill-opacity:1;" d="M 3.839844 4.460938 C 3.640625 4.460938 3.445312 4.460938 3.25 4.460938 C 3.222656 8.945312 3.238281 13.425781 3.234375 17.90625 C 3.242188 20.285156 3.214844 22.660156 3.25 25.039062 C 4.058594 25.035156 4.867188 25.042969 5.675781 25.039062 C 5.695312 24.691406 5.699219 24.34375 5.699219 23.992188 L 5.699219 23.835938 L 5.859375 23.835938 C 6.203125 23.839844 6.546875 23.835938 6.886719 23.832031 C 6.898438 23.484375 6.921875 23.128906 6.882812 22.777344 L 6.859375 22.582031 L 7.058594 22.605469 C 7.414062 22.652344 7.769531 22.621094 8.125 22.613281 C 8.132812 22.277344 8.140625 21.9375 8.140625 21.597656 L 8.144531 21.445312 L 8.300781 21.445312 C 8.566406 21.449219 8.835938 21.445312 9.105469 21.429688 L 9.28125 21.421875 L 9.269531 21.597656 C 9.214844 22.335938 9.339844 23.078125 9.296875 23.816406 C 9.648438 23.828125 10 23.835938 10.351562 23.835938 L 10.5 23.839844 L 10.503906 23.992188 C 10.511719 24.742188 10.507812 25.492188 10.519531 26.242188 C 10.867188 26.246094 11.214844 26.25 11.558594 26.253906 L 11.714844 26.253906 L 11.714844 26.40625 C 11.722656 26.757812 11.726562 27.105469 11.722656 27.453125 C 12.539062 27.464844 13.351562 27.464844 14.167969 27.457031 C 14.195312 27.113281 14.210938 26.765625 14.183594 26.414062 L 14.171875 26.242188 L 14.34375 26.246094 C 14.691406 26.257812 15.035156 26.253906 15.378906 26.246094 C 15.390625 25.4375 15.386719 24.628906 15.375 23.820312 C 15.027344 23.8125 14.679688 23.804688 14.332031 23.800781 L 14.179688 23.800781 L 14.179688 23.648438 C 14.167969 22.898438 14.171875 22.148438 14.167969 21.398438 C 13.820312 21.382812 13.46875 21.378906 13.117188 21.386719 L 12.953125 21.390625 L 12.957031 21.226562 C 12.96875 20.9375 12.976562 20.648438 12.972656 20.359375 L 12.972656 20.207031 L 13.128906 20.207031 C 14.6875 20.203125 16.242188 20.203125 17.800781 20.1875 C 17.808594 19.378906 17.8125 18.574219 17.796875 17.769531 C 17.449219 17.769531 17.097656 17.769531 16.75 17.761719 L 16.597656 17.761719 L 16.59375 17.609375 C 16.589844 17.261719 16.585938 16.910156 16.589844 16.5625 C 16.242188 16.550781 15.894531 16.550781 15.542969 16.550781 L 15.390625 16.550781 L 15.386719 16.394531 C 15.382812 16.050781 15.382812 15.703125 15.375 15.359375 C 15.027344 15.34375 14.675781 15.332031 14.324219 15.335938 L 14.167969 15.339844 L 14.167969 15.179688 C 14.167969 14.828125 14.164062 14.480469 14.160156 14.128906 C 13.8125 14.132812 13.460938 14.128906 13.109375 14.121094 L 12.957031 14.117188 L 12.957031 13.96875 C 12.957031 13.625 12.953125 13.28125 12.945312 12.941406 C 12.597656 12.921875 12.253906 12.917969 11.902344 12.917969 L 11.75 12.917969 L 11.746094 12.761719 C 11.742188 12.414062 11.738281 12.066406 11.738281 11.714844 C 11.390625 11.714844 11.039062 11.710938 10.6875 11.707031 L 10.539062 11.703125 L 10.535156 11.554688 C 10.523438 11.207031 10.507812 10.855469 10.507812 10.507812 C 10.164062 10.496094 9.824219 10.496094 9.480469 10.496094 L 9.328125 10.496094 L 9.324219 10.34375 C 9.316406 9.996094 9.3125 9.648438 9.3125 9.296875 C 8.964844 9.292969 8.613281 9.292969 8.261719 9.285156 L 8.113281 9.285156 L 8.109375 9.136719 C 8.09375 8.789062 8.089844 8.4375 8.089844 8.085938 C 7.742188 8.078125 7.394531 8.078125 7.042969 8.074219 L 6.890625 8.074219 L 6.886719 7.921875 C 6.886719 7.574219 6.882812 7.226562 6.875 6.878906 C 6.527344 6.878906 6.175781 6.875 5.824219 6.875 L 5.671875 6.871094 L 5.667969 6.71875 C 5.667969 6.371094 5.664062 6.023438 5.664062 5.671875 C 5.3125 5.660156 4.960938 5.664062 4.605469 5.667969 L 4.453125 5.667969 L 4.453125 5.511719 C 4.449219 5.160156 4.441406 4.8125 4.429688 4.460938 C 4.230469 4.460938 4.035156 4.460938 3.839844 4.460938 Z M 3.839844 4.460938 "/>
<path style=" stroke:none;fill-rule:nonzero;fill:rgb(10.980392%,10.980392%,10.980392%);fill-opacity:1;" d="M 3.25 4.464844 C 3.644531 4.460938 4.035156 4.460938 4.429688 4.460938 C 4.445312 4.863281 4.457031 5.261719 4.457031 5.664062 C 4.859375 5.660156 5.261719 5.660156 5.664062 5.671875 C 5.664062 6.074219 5.664062 6.472656 5.671875 6.871094 C 5.265625 6.867188 4.859375 6.871094 4.453125 6.871094 C 4.449219 12.519531 4.464844 18.164062 4.457031 23.808594 C 4.859375 23.8125 5.261719 23.8125 5.664062 23.804688 C 5.660156 23.40625 5.660156 23.007812 5.664062 22.609375 C 6.066406 22.601562 6.472656 22.566406 6.867188 22.640625 C 6.933594 23.035156 6.898438 23.4375 6.886719 23.835938 C 6.492188 23.839844 6.097656 23.84375 5.703125 23.839844 C 5.707031 24.238281 5.699219 24.640625 5.671875 25.039062 C 4.867188 25.042969 4.054688 25.035156 3.246094 25.035156 C 3.214844 22.660156 3.242188 20.285156 3.234375 17.90625 C 3.238281 13.425781 3.222656 8.945312 3.25 4.464844 Z M 3.25 4.464844 "/>
<path style=" stroke:none;fill-rule:nonzero;fill:rgb(10.980392%,10.980392%,10.980392%);fill-opacity:1;" d="M 5.671875 6.871094 C 6.070312 6.875 6.472656 6.875 6.875 6.878906 C 6.882812 7.277344 6.886719 7.675781 6.890625 8.074219 C 7.289062 8.074219 7.691406 8.078125 8.089844 8.085938 C 8.089844 8.484375 8.089844 8.886719 8.113281 9.285156 C 8.511719 9.292969 8.914062 9.292969 9.3125 9.296875 C 9.308594 9.695312 9.3125 10.097656 9.324219 10.496094 C 9.71875 10.492188 10.113281 10.496094 10.507812 10.507812 C 10.507812 10.90625 10.527344 11.304688 10.539062 11.703125 C 10.9375 11.710938 11.339844 11.714844 11.738281 11.714844 C 11.738281 12.113281 11.738281 12.511719 11.746094 12.914062 C 12.148438 12.914062 12.546875 12.917969 12.945312 12.941406 C 12.957031 13.332031 12.960938 13.726562 12.960938 14.121094 C 13.363281 14.132812 13.761719 14.132812 14.160156 14.132812 C 14.164062 14.53125 14.167969 14.933594 14.167969 15.332031 C 13.761719 15.351562 13.359375 15.351562 12.953125 15.339844 C 12.953125 14.941406 12.953125 14.539062 12.953125 14.136719 C 12.546875 14.132812 12.140625 14.132812 11.734375 14.136719 C 11.738281 13.730469 11.738281 13.328125 11.730469 12.921875 C 11.332031 12.921875 10.929688 12.921875 10.527344 12.925781 C 10.527344 12.523438 10.527344 12.121094 10.527344 11.71875 C 10.121094 11.710938 9.714844 11.710938 9.308594 11.71875 C 9.308594 11.3125 9.3125 10.90625 9.304688 10.5 C 8.90625 10.5 8.503906 10.503906 8.101562 10.503906 C 8.09375 10.097656 8.097656 9.695312 8.09375 9.292969 C 7.6875 9.292969 7.285156 9.292969 6.878906 9.285156 C 6.882812 8.882812 6.882812 8.484375 6.878906 8.082031 C 6.480469 8.078125 6.078125 8.078125 5.679688 8.082031 C 5.667969 7.679688 5.667969 7.273438 5.671875 6.871094 Z M 5.671875 6.871094 "/>
<path style=" stroke:none;fill-rule:nonzero;fill:rgb(10.980392%,10.980392%,10.980392%);fill-opacity:1;" d="M 14.167969 15.332031 C 14.570312 15.320312 14.972656 15.339844 15.375 15.359375 C 15.382812 15.753906 15.386719 16.152344 15.390625 16.546875 C 15.789062 16.546875 16.191406 16.550781 16.589844 16.5625 C 16.585938 16.960938 16.589844 17.363281 16.597656 17.761719 C 16.996094 17.769531 17.398438 17.769531 17.796875 17.769531 C 17.8125 18.574219 17.8125 19.378906 17.800781 20.183594 C 16.191406 20.203125 14.582031 20.203125 12.976562 20.207031 C 12.976562 20.601562 12.980469 20.996094 12.957031 21.390625 C 12.550781 21.410156 12.144531 21.40625 11.738281 21.402344 C 11.726562 20.59375 11.730469 19.789062 11.738281 18.980469 C 13.355469 18.972656 14.972656 18.984375 16.589844 18.980469 C 16.597656 18.574219 16.597656 18.171875 16.589844 17.765625 C 16.1875 17.765625 15.78125 17.765625 15.378906 17.757812 C 15.378906 17.359375 15.378906 16.957031 15.375 16.558594 C 14.976562 16.554688 14.574219 16.554688 14.175781 16.558594 C 14.160156 16.148438 14.160156 15.742188 14.167969 15.332031 Z M 14.167969 15.332031 "/>
<path style=" stroke:none;fill-rule:nonzero;fill:rgb(10.980392%,10.980392%,10.980392%);fill-opacity:1;" d="M 8.097656 20.179688 C 8.496094 20.179688 8.898438 20.179688 9.300781 20.179688 C 9.316406 20.59375 9.335938 21.011719 9.277344 21.421875 C 8.898438 21.453125 8.523438 21.449219 8.144531 21.445312 C 8.144531 21.835938 8.132812 22.222656 8.125 22.613281 C 7.722656 22.625 7.316406 22.664062 6.917969 22.589844 C 6.835938 22.195312 6.875 21.792969 6.882812 21.394531 C 7.285156 21.390625 7.6875 21.390625 8.089844 21.390625 C 8.089844 20.988281 8.089844 20.585938 8.097656 20.179688 Z M 8.097656 20.179688 "/>
<path style=" stroke:none;fill-rule:nonzero;fill:rgb(10.980392%,10.980392%,10.980392%);fill-opacity:1;" d="M 9.277344 21.421875 C 9.691406 21.378906 10.109375 21.390625 10.523438 21.398438 C 10.53125 22.203125 10.523438 23.007812 10.527344 23.8125 C 10.933594 23.8125 11.335938 23.8125 11.742188 23.820312 C 11.746094 24.621094 11.734375 25.421875 11.746094 26.226562 C 12.558594 26.238281 13.371094 26.199219 14.179688 26.246094 C 14.226562 26.648438 14.203125 27.054688 14.167969 27.457031 C 13.351562 27.464844 12.539062 27.464844 11.726562 27.457031 C 11.726562 27.054688 11.722656 26.65625 11.714844 26.253906 C 11.316406 26.253906 10.917969 26.25 10.519531 26.242188 C 10.507812 25.441406 10.511719 24.640625 10.503906 23.839844 C 10.101562 23.835938 9.699219 23.832031 9.300781 23.816406 C 9.34375 23.019531 9.183594 22.21875 9.277344 21.421875 Z M 9.277344 21.421875 "/>
<path style=" stroke:none;fill-rule:nonzero;fill:rgb(10.980392%,10.980392%,10.980392%);fill-opacity:1;" d="M 12.957031 21.390625 C 13.359375 21.371094 13.765625 21.382812 14.167969 21.398438 C 14.171875 22.199219 14.164062 23 14.179688 23.800781 C 14.578125 23.804688 14.976562 23.808594 15.375 23.820312 C 15.386719 24.628906 15.390625 25.4375 15.378906 26.246094 C 14.980469 26.253906 14.578125 26.265625 14.179688 26.246094 C 14.132812 25.441406 14.171875 24.632812 14.164062 23.828125 C 13.757812 23.820312 13.351562 23.820312 12.945312 23.816406 C 12.945312 23.007812 12.9375 22.199219 12.957031 21.390625 Z M 12.957031 21.390625 "/>
</g>
</svg>
